<?xml version="1.0" encoding="UTF-8" standalone="no"?>
<!DOCTYPE svg PUBLIC "-//W3C//DTD SVG 1.1//EN" "http://www.w3.org/Graphics/SVG/1.1/DTD/svg11.dtd">
<svg width="100%" height="100%" viewBox="0 0 857 609" version="1.1" xmlns="http://www.w3.org/2000/svg" xmlns:xlink="http://www.w3.org/1999/xlink" xml:space="preserve" xmlns:serif="http://www.serif.com/" style="fill-rule:evenodd;clip-rule:evenodd;stroke-miterlimit:10;">
    <g id="image" transform="matrix(1,0,0,1,-0.0003,-0.0004)">
        <g transform="matrix(1,0,0,1,444.489,190.802)">
            <path d="M0,0C0,12.86 -10.426,23.286 -23.286,23.286C-36.146,23.286 -46.572,12.86 -46.572,0C-46.572,-12.86 -36.146,-23.286 -23.286,-23.286C-10.426,-23.286 0,-12.86 0,0" style="fill:rgb(214,224,229);fill-rule:nonzero;"/>
        </g>
        <g transform="matrix(1,0,0,1,377.262,244.529)">
            <path d="M0,0C0,7.608 -6.168,13.776 -13.776,13.776C-21.384,13.776 -27.552,7.608 -27.552,0C-27.552,-7.608 -21.384,-13.776 -13.776,-13.776C-6.168,-13.776 0,-7.608 0,0" style="fill:rgb(214,224,229);fill-rule:nonzero;"/>
        </g>
        <g transform="matrix(1,0,0,1,334.982,217.324)">
            <path d="M0,0C0,2.294 -1.86,4.155 -4.155,4.155C-6.45,4.155 -8.311,2.294 -8.311,0C-8.311,-2.295 -6.45,-4.155 -4.155,-4.155C-1.86,-4.155 0,-2.295 0,0" style="fill:rgb(214,224,229);fill-rule:nonzero;"/>
        </g>
        <g transform="matrix(1,0,0,1,466.558,244.529)">
            <path d="M0,0C0,7.608 -6.168,13.776 -13.776,13.776C-21.384,13.776 -27.552,7.608 -27.552,0C-27.552,-7.608 -21.384,-13.776 -13.776,-13.776C-6.168,-13.776 0,-7.608 0,0" style="fill:rgb(214,224,229);fill-rule:nonzero;"/>
        </g>
        <g transform="matrix(1,0,0,1,481.558,306.612)">
            <path d="M0,0C0,7.608 -6.168,13.776 -13.776,13.776C-21.384,13.776 -27.552,7.608 -27.552,0C-27.552,-7.608 -21.384,-13.776 -13.776,-13.776C-6.168,-13.776 0,-7.608 0,0" style="fill:rgb(214,224,229);fill-rule:nonzero;"/>
        </g>
        <g transform="matrix(1,0,0,1,422.391,274.075)">
            <path d="M0,-0.001C0,11.177 -9.062,20.239 -20.239,20.239C-31.417,20.239 -40.479,11.177 -40.479,-0.001C-40.479,-11.179 -31.417,-20.24 -20.239,-20.24C-9.062,-20.24 0,-11.179 0,-0.001" style="fill:rgb(214,224,229);fill-rule:nonzero;"/>
        </g>
        <g transform="matrix(0,-1,-1,-0,421.203,133.886)">
            <circle cx="-110.643" cy="0" r="110.643" style="fill:none;stroke:rgb(85,119,147);stroke-width:6px;"/>
        </g>
        <g transform="matrix(1,0,0,1,420.893,351.926)">
            <path d="M0,-214.723C-3.755,-214.723 -7.465,-214.525 -11.121,-214.151C43.1,-208.599 85.396,-162.91 85.396,-107.362C85.396,-51.813 43.1,-6.124 -11.121,-0.572C-7.465,-0.198 -3.755,0 0,0C59.446,0 107.637,-48.067 107.637,-107.362C107.637,-166.656 59.446,-214.723 0,-214.723" style="fill:rgb(214,224,229);fill-rule:nonzero;"/>
        </g>
        <g transform="matrix(0,-1,-1,-0,421.203,167.516)">
            <circle cx="-23.286" cy="0" r="23.286" style="fill:none;stroke:rgb(85,119,147);stroke-width:6px;"/>
        </g>
        <g transform="matrix(0,-1,-1,-0,452.782,230.892)">
            <circle cx="-13.673" cy="-0.001" r="13.673" style="fill:none;stroke:rgb(85,119,147);stroke-width:6px;"/>
        </g>
        <g transform="matrix(0,-1,-1,-0,363.486,230.856)">
            <ellipse cx="-13.673" cy="0" rx="13.672" ry="13.673" style="fill:none;stroke:rgb(85,119,147);stroke-width:6px;"/>
        </g>
        <g transform="matrix(0,-1,-1,-0,330.827,212.01)">
            <circle cx="-5.314" cy="0" r="5.314" style="fill:none;stroke:rgb(85,119,147);stroke-width:6px;"/>
        </g>
        <g transform="matrix(0,-1,-1,-0,466.454,292.94)">
            <ellipse cx="-13.673" cy="-0.001" rx="13.673" ry="13.673" style="fill:none;stroke:rgb(85,119,147);stroke-width:6px;"/>
        </g>
        <g transform="matrix(0,-1,-1,-0,402.151,252.865)">
            <ellipse cx="-21.209" cy="0" rx="21.208" ry="21.208" style="fill:none;stroke:rgb(85,119,147);stroke-width:6px;"/>
        </g>
        <g transform="matrix(1,0,0,1,220.151,235.09)">
            <path d="M0,43.697L0,-4.706C0,-17.142 1.008,-36.638 1.681,-49.075L0.336,-49.075C-5.042,-37.983 -11.092,-27.226 -17.143,-15.798L-56.134,43.697L0,43.697ZM0,73.614L-94.453,73.614L-94.453,47.396L-9.748,-85.042L36.302,-85.042L36.302,43.697L63.193,43.697L63.193,73.614L36.302,73.614L36.302,128.739L0,128.739L0,73.614Z" style="fill:rgb(85,119,147);fill-rule:nonzero;"/>
        </g>
        <g transform="matrix(1,0,0,1,647.676,235.09)">
            <path d="M0,43.697L0,-4.706C0,-17.142 1.009,-36.638 1.681,-49.075L0.336,-49.075C-5.042,-37.983 -11.092,-27.226 -17.143,-15.798L-56.134,43.697L0,43.697ZM0,73.614L-94.453,73.614L-94.453,47.396L-9.748,-85.042L36.303,-85.042L36.303,43.697L63.193,43.697L63.193,73.614L36.303,73.614L36.303,128.739L0,128.739L0,73.614Z" style="fill:rgb(85,119,147);fill-rule:nonzero;"/>
        </g>
    </g>
    <g id="text" transform="matrix(1,0,0,1,-0.0003,-0.0004)">
        <g>
            <g opacity="0.630005">
                <g transform="matrix(1,0,0,1,0,566.757)">
                    <rect x="247.344" y="8.205" width="3.258" height="25.755" style="fill:rgb(85,119,147);"/>
                </g>
                <g transform="matrix(1,0,0,1,257.906,582.656)">
                    <path d="M0,12.172L0,1.61L-2.827,1.61L-2.827,-0.824L0.157,-1.02L0.55,-6.359L3.259,-6.359L3.259,-1.02L8.402,-1.02L8.402,1.61L3.259,1.61L3.259,12.211C3.259,14.567 4.004,15.901 6.203,15.901C6.871,15.901 7.734,15.626 8.363,15.391L8.991,17.825C7.931,18.179 6.635,18.531 5.457,18.531C1.374,18.531 0,15.941 0,12.172" style="fill:rgb(85,119,147);fill-rule:nonzero;"/>
                </g>
                <g transform="matrix(1,0,0,1,278.482,577.081)">
                    <path d="M0,19.788L0,-4.318L3.22,-4.318L3.22,20.023C3.22,21.045 3.651,21.437 4.123,21.437C4.319,21.437 4.476,21.437 4.829,21.358L5.261,23.793C4.829,23.989 4.28,24.106 3.416,24.106C0.981,24.106 0,22.576 0,19.788" style="fill:rgb(85,119,147);fill-rule:nonzero;"/>
                </g>
                <g transform="matrix(1,0,0,1,301.411,591.137)">
                    <path d="M0,0.079C0,-4.318 -2.199,-7.302 -5.497,-7.302C-8.755,-7.302 -10.993,-4.318 -10.993,0.079C-10.993,4.436 -8.755,7.382 -5.497,7.382C-2.199,7.382 0,4.436 0,0.079M-14.33,0.079C-14.33,-6.32 -10.168,-9.972 -5.497,-9.972C-0.825,-9.972 3.337,-6.32 3.337,0.079C3.337,6.4 -0.825,10.051 -5.497,10.051C-10.168,10.051 -14.33,6.4 -14.33,0.079" style="fill:rgb(85,119,147);fill-rule:nonzero;"/>
                </g>
                <g transform="matrix(1,0,0,1,322.693,591.137)">
                    <path d="M0,0.079C0,-4.318 -2.199,-7.302 -5.497,-7.302C-8.755,-7.302 -10.993,-4.318 -10.993,0.079C-10.993,4.436 -8.755,7.382 -5.497,7.382C-2.199,7.382 0,4.436 0,0.079M-14.33,0.079C-14.33,-6.32 -10.168,-9.972 -5.497,-9.972C-0.825,-9.972 3.337,-6.32 3.337,0.079C3.337,6.4 -0.825,10.051 -5.497,10.051C-10.168,10.051 -14.33,6.4 -14.33,0.079" style="fill:rgb(85,119,147);fill-rule:nonzero;"/>
                </g>
                <g transform="matrix(1,0,0,1,331.059,600.717)">
                    <path d="M0,-27.954L3.18,-27.954L3.18,-9.03L3.298,-9.03L11.425,-19.081L14.998,-19.081L8.598,-11.425L15.861,0L12.328,0L6.753,-9.187L3.18,-5.025L3.18,0L0,0L0,-27.954Z" style="fill:rgb(85,119,147);fill-rule:nonzero;"/>
                </g>
                <g transform="matrix(1,0,0,1,348.376,583.795)">
                    <path d="M0,14.763L1.61,12.604C3.259,13.939 4.947,14.88 7.224,14.88C9.737,14.88 10.993,13.546 10.993,11.897C10.993,9.934 8.716,9.07 6.635,8.284C3.926,7.303 0.942,6.008 0.942,2.788C0.942,-0.274 3.376,-2.63 7.499,-2.63C9.894,-2.63 11.975,-1.648 13.427,-0.47L11.896,1.572C10.601,0.59 9.227,-0.117 7.538,-0.117C5.144,-0.117 4.044,1.179 4.044,2.631C4.044,4.437 6.125,5.105 8.284,5.929C11.033,6.95 14.095,8.088 14.095,11.7C14.095,14.802 11.622,17.393 7.106,17.393C4.397,17.393 1.806,16.255 0,14.763" style="fill:rgb(85,119,147);fill-rule:nonzero;"/>
                </g>
                <g transform="matrix(1,0,0,1,374.802,577.081)">
                    <path d="M0,19.788L0,-4.318L3.22,-4.318L3.22,20.023C3.22,21.045 3.651,21.437 4.123,21.437C4.319,21.437 4.476,21.437 4.829,21.358L5.261,23.793C4.829,23.989 4.28,24.106 3.416,24.106C0.981,24.106 0,22.576 0,19.788" style="fill:rgb(85,119,147);fill-rule:nonzero;"/>
                </g>
                <g transform="matrix(1,0,0,1,0,565.343)">
                    <path d="M384.815,16.293L388.035,16.293L388.035,35.374L384.815,35.374L384.815,16.293ZM384.226,10.286C384.226,9.03 385.207,8.205 386.464,8.205C387.72,8.205 388.702,9.03 388.702,10.286C388.702,11.503 387.72,12.367 386.464,12.367C385.207,12.367 384.226,11.503 384.226,10.286" style="fill:rgb(85,119,147);fill-rule:nonzero;"/>
                </g>
                <g transform="matrix(1,0,0,1,394.474,600.717)">
                    <path d="M0,-27.954L3.18,-27.954L3.18,-9.03L3.298,-9.03L11.425,-19.081L14.998,-19.081L8.598,-11.425L15.861,0L12.328,0L6.753,-9.187L3.18,-5.025L3.18,0L0,0L0,-27.954Z" style="fill:rgb(85,119,147);fill-rule:nonzero;"/>
                </g>
                <g transform="matrix(1,0,0,1,425.14,592.708)">
                    <path d="M0,-3.062C0,-6.91 -1.728,-8.991 -4.712,-8.991C-7.381,-8.991 -9.815,-6.832 -10.208,-3.062L0,-3.062ZM-13.349,-1.492C-13.349,-7.734 -9.148,-11.542 -4.79,-11.542C0.078,-11.542 2.826,-8.048 2.826,-2.591C2.826,-1.923 2.787,-1.217 2.709,-0.746L-10.168,-0.746C-9.933,3.298 -7.459,5.889 -3.809,5.889C-2.003,5.889 -0.472,5.3 0.942,4.397L2.08,6.517C0.432,7.578 -1.61,8.48 -4.201,8.48C-9.305,8.48 -13.349,4.75 -13.349,-1.492" style="fill:rgb(85,119,147);fill-rule:nonzero;"/>
                </g>
                <g transform="matrix(1,0,0,1,438.61,582.028)">
                    <path d="M0,26.501L0.628,23.949C1.021,24.067 1.609,24.225 2.081,24.225C4.24,24.225 5.614,22.497 6.399,20.142L6.831,18.728L-0.824,-0.393L2.513,-0.393L6.399,10.169C6.988,11.817 7.656,13.781 8.245,15.548L8.402,15.548C8.952,13.82 9.501,11.857 10.012,10.169L13.428,-0.393L16.568,-0.393L9.384,20.259C8.049,24.028 6.085,26.894 2.238,26.894C1.374,26.894 0.628,26.737 0,26.501" style="fill:rgb(85,119,147);fill-rule:nonzero;"/>
                </g>
                <g transform="matrix(1,0,0,1,471.63,591.137)">
                    <path d="M0,0.079C0,-4.318 -2.198,-7.302 -5.496,-7.302C-8.755,-7.302 -10.992,-4.318 -10.992,0.079C-10.992,4.436 -8.755,7.382 -5.496,7.382C-2.198,7.382 0,4.436 0,0.079M-14.33,0.079C-14.33,-6.32 -10.168,-9.972 -5.496,-9.972C-0.824,-9.972 3.338,-6.32 3.338,0.079C3.338,6.4 -0.824,10.051 -5.496,10.051C-10.168,10.051 -14.33,6.4 -14.33,0.079" style="fill:rgb(85,119,147);fill-rule:nonzero;"/>
                </g>
                <g transform="matrix(1,0,0,1,479.722,589.095)">
                    <path d="M0,4.634L0,-7.459L3.259,-7.459L3.259,4.202C3.259,7.775 4.319,9.306 6.832,9.306C8.795,9.306 10.169,8.324 11.975,6.086L11.975,-7.459L15.194,-7.459L15.194,11.622L12.524,11.622L12.25,8.639L12.132,8.639C10.365,10.719 8.48,12.093 5.851,12.093C1.807,12.093 0,9.502 0,4.634" style="fill:rgb(85,119,147);fill-rule:nonzero;"/>
                </g>
                <g transform="matrix(1,0,0,1,500.612,574.765)">
                    <path d="M0,7.539C1.963,6.243 2.944,4.869 2.944,2.631C2.826,2.671 2.748,2.671 2.63,2.671C1.531,2.671 0.55,1.964 0.55,0.707C0.55,-0.667 1.413,-1.491 2.63,-1.491C4.161,-1.491 5.104,-0.195 5.104,2.081C5.104,5.223 3.611,7.46 0.902,9.03L0,7.539Z" style="fill:rgb(85,119,147);fill-rule:nonzero;"/>
                </g>
                <g transform="matrix(1,0,0,1,510.626,600.246)">
                    <path d="M0,-18.61L2.669,-18.61L2.944,-15.155L3.063,-15.155C4.357,-17.549 6.32,-19.081 8.48,-19.081C9.305,-19.081 9.894,-18.964 10.521,-18.688L9.894,-15.861C9.266,-16.058 8.833,-16.175 8.048,-16.175C6.438,-16.175 4.515,-14.998 3.219,-11.778L3.219,0.471L0,0.471L0,-18.61Z" style="fill:rgb(85,119,147);fill-rule:nonzero;"/>
                </g>
                <g transform="matrix(1,0,0,1,535.793,592.708)">
                    <path d="M0,-3.062C0,-6.91 -1.728,-8.991 -4.711,-8.991C-7.381,-8.991 -9.814,-6.832 -10.207,-3.062L0,-3.062ZM-13.349,-1.492C-13.349,-7.734 -9.147,-11.542 -4.789,-11.542C0.079,-11.542 2.827,-8.048 2.827,-2.591C2.827,-1.923 2.788,-1.217 2.709,-0.746L-10.168,-0.746C-9.933,3.298 -7.459,5.889 -3.808,5.889C-2.002,5.889 -0.471,5.3 0.942,4.397L2.081,6.517C0.433,7.578 -1.609,8.48 -4.2,8.48C-9.305,8.48 -13.349,4.75 -13.349,-1.492" style="fill:rgb(85,119,147);fill-rule:nonzero;"/>
                </g>
                <g transform="matrix(1,0,0,1,551.187,577.081)">
                    <path d="M0,19.788L0,-4.318L3.219,-4.318L3.219,20.023C3.219,21.045 3.651,21.437 4.122,21.437C4.318,21.437 4.476,21.437 4.829,21.358L5.261,23.793C4.829,23.989 4.279,24.106 3.415,24.106C0.981,24.106 0,22.576 0,19.788" style="fill:rgb(85,119,147);fill-rule:nonzero;"/>
                </g>
                <g transform="matrix(1,0,0,1,574.116,591.137)">
                    <path d="M0,0.079C0,-4.318 -2.198,-7.302 -5.496,-7.302C-8.755,-7.302 -10.992,-4.318 -10.992,0.079C-10.992,4.436 -8.755,7.382 -5.496,7.382C-2.198,7.382 0,4.436 0,0.079M-14.33,0.079C-14.33,-6.32 -10.168,-9.972 -5.496,-9.972C-0.824,-9.972 3.338,-6.32 3.338,0.079C3.338,6.4 -0.824,10.051 -5.496,10.051C-10.168,10.051 -14.33,6.4 -14.33,0.079" style="fill:rgb(85,119,147);fill-rule:nonzero;"/>
                </g>
                <g transform="matrix(1,0,0,1,580.363,583.795)">
                    <path d="M0,14.763L1.609,12.604C3.259,13.939 4.946,14.88 7.224,14.88C9.736,14.88 10.993,13.546 10.993,11.897C10.993,9.934 8.716,9.07 6.635,8.284C3.926,7.303 0.942,6.008 0.942,2.788C0.942,-0.274 3.376,-2.63 7.498,-2.63C9.894,-2.63 11.975,-1.648 13.427,-0.47L11.896,1.572C10.601,0.59 9.226,-0.117 7.538,-0.117C5.143,-0.117 4.044,1.179 4.044,2.631C4.044,4.437 6.124,5.105 8.284,5.929C11.032,6.95 14.095,8.088 14.095,11.7C14.095,14.802 11.621,17.393 7.105,17.393C4.396,17.393 1.806,16.255 0,14.763" style="fill:rgb(85,119,147);fill-rule:nonzero;"/>
                </g>
                <g transform="matrix(1,0,0,1,598.7,582.656)">
                    <path d="M0,12.172L0,1.61L-2.827,1.61L-2.827,-0.824L0.156,-1.02L0.549,-6.359L3.258,-6.359L3.258,-1.02L8.401,-1.02L8.401,1.61L3.258,1.61L3.258,12.211C3.258,14.567 4.004,15.901 6.203,15.901C6.87,15.901 7.734,15.626 8.362,15.391L8.99,17.825C7.931,18.179 6.635,18.531 5.457,18.531C1.374,18.531 0,15.941 0,12.172" style="fill:rgb(85,119,147);fill-rule:nonzero;"/>
                </g>
                <g transform="matrix(1,0,0,1,611.029,598.675)">
                    <path d="M0,0.079C0,-1.413 1.061,-2.434 2.355,-2.434C3.612,-2.434 4.672,-1.413 4.672,0.079C4.672,1.492 3.612,2.513 2.355,2.513C1.061,2.513 0,1.492 0,0.079" style="fill:rgb(85,119,147);fill-rule:nonzero;"/>
                </g>
                <g transform="matrix(1,0,0,1,620.806,598.675)">
                    <path d="M0,0.079C0,-1.413 1.061,-2.434 2.355,-2.434C3.612,-2.434 4.672,-1.413 4.672,0.079C4.672,1.492 3.612,2.513 2.355,2.513C1.061,2.513 0,1.492 0,0.079" style="fill:rgb(85,119,147);fill-rule:nonzero;"/>
                </g>
                <g transform="matrix(1,0,0,1,630.584,598.675)">
                    <path d="M0,0.079C0,-1.413 1.061,-2.434 2.355,-2.434C3.612,-2.434 4.672,-1.413 4.672,0.079C4.672,1.492 3.612,2.513 2.355,2.513C1.061,2.513 0,1.492 0,0.079" style="fill:rgb(85,119,147);fill-rule:nonzero;"/>
                </g>
            </g>
        </g>
        <g transform="matrix(1,0,0,1,350.179,487.924)">
            <path d="M0,-0.482C0,-12.215 -5.304,-19.369 -13.582,-19.369C-21.86,-19.369 -27.164,-12.215 -27.164,-0.482C-27.164,11.332 -21.86,18.887 -13.582,18.887C-5.304,18.887 0,11.332 0,-0.482M-36.728,-0.482C-36.728,-17.44 -27.244,-27.486 -13.582,-27.486C0.161,-27.486 9.645,-17.44 9.645,-0.482C9.645,16.556 0.161,27.004 -13.582,27.004C-27.244,27.004 -36.728,16.556 -36.728,-0.482" style="fill:rgb(85,119,147);fill-rule:nonzero;"/>
        </g>
        <g transform="matrix(1,0,0,1,404.35,487.924)">
            <path d="M0,-0.482C0,-12.215 -5.304,-19.369 -13.582,-19.369C-21.86,-19.369 -27.164,-12.215 -27.164,-0.482C-27.164,11.332 -21.86,18.887 -13.582,18.887C-5.304,18.887 0,11.332 0,-0.482M-36.728,-0.482C-36.728,-17.44 -27.244,-27.486 -13.582,-27.486C0.161,-27.486 9.645,-17.44 9.645,-0.482C9.645,16.556 0.161,27.004 -13.582,27.004C-27.244,27.004 -36.728,16.556 -36.728,-0.482" style="fill:rgb(85,119,147);fill-rule:nonzero;"/>
        </g>
        <g transform="matrix(1,0,0,1,440.679,488.166)">
            <path d="M0,-0.965C7.796,-0.965 11.573,-4.099 11.573,-10.528C11.573,-17.119 7.475,-19.289 -0.321,-19.289L-6.831,-19.289L-6.831,-0.965L0,-0.965ZM-16.153,-26.763L0.402,-26.763C12.056,-26.763 20.735,-22.744 20.735,-10.528C20.735,1.125 12.056,6.51 0.724,6.51L-6.831,6.51L-6.831,25.798L-16.153,25.798L-16.153,-26.763Z" style="fill:rgb(85,119,147);fill-rule:nonzero;"/>
        </g>
        <g transform="matrix(1,0,0,1,466.881,468.155)">
            <path d="M0,39.058L5.465,32.709C9.242,36.245 14.306,38.657 19.128,38.657C25.075,38.657 28.29,36.004 28.29,31.906C28.29,27.566 24.914,26.2 20.173,24.19L12.939,21.056C7.796,18.886 2.331,14.787 2.331,7.072C2.331,-1.287 9.725,-7.716 20.012,-7.716C26.12,-7.716 32.067,-5.144 36.166,-1.046L31.424,4.902C28.049,2.088 24.513,0.401 20.012,0.401C15.029,0.401 11.734,2.732 11.734,6.589C11.734,10.688 15.752,12.215 20.093,13.983L27.245,16.956C33.434,19.609 37.854,23.547 37.854,31.182C37.854,39.701 30.781,46.774 18.967,46.774C11.895,46.774 4.983,43.96 0,39.058" style="fill:rgb(85,119,147);fill-rule:nonzero;"/>
        </g>
        <g transform="matrix(1,0,0,1,515.91,505.766)">
            <path d="M0,-36.487L-0.241,-45.649L9.081,-45.649L8.76,-36.487L7.474,-9.082L1.285,-9.082L0,-36.487ZM-1.607,2.893C-1.607,-0.723 1.044,-3.376 4.42,-3.376C7.795,-3.376 10.367,-0.723 10.367,2.893C10.367,6.51 7.795,9.162 4.42,9.162C1.044,9.162 -1.607,6.51 -1.607,2.893" style="fill:rgb(85,119,147);fill-rule:nonzero;"/>
        </g>
    </g>
    <g id="stars" transform="matrix(1,0,0,1,-0.0003,-0.0004)">
        <g>
            <g opacity="0.449997">
                <g transform="matrix(1,0,0,1,629.266,453.648)">
                    <path d="M0,0C0,2.215 -1.696,4.011 -3.788,4.011C-5.88,4.011 -7.576,2.215 -7.576,0C-7.576,-2.215 -5.88,-4.011 -3.788,-4.011C-1.696,-4.011 0,-2.215 0,0" style="fill:rgb(85,119,147);fill-rule:nonzero;"/>
                </g>
            </g>
        </g>
        <g>
            <g opacity="0.449997">
                <g transform="matrix(1,0,0,1,282.269,396.017)">
                    <path d="M0,0C0,2.216 -1.696,4.011 -3.788,4.011C-5.879,4.011 -7.575,2.216 -7.575,0C-7.575,-2.215 -5.879,-4.011 -3.788,-4.011C-1.696,-4.011 0,-2.215 0,0" style="fill:rgb(85,119,147);fill-rule:nonzero;"/>
                </g>
            </g>
        </g>
        <g>
            <g opacity="0.449997">
                <g transform="matrix(1,0,0,1,264.775,483.498)">
                    <path d="M0,0.001C0,2.216 -1.696,4.012 -3.788,4.012C-5.879,4.012 -7.575,2.216 -7.575,0.001C-7.575,-2.215 -5.879,-4.011 -3.788,-4.011C-1.696,-4.011 0,-2.215 0,0.001" style="fill:rgb(85,119,147);fill-rule:nonzero;"/>
                </g>
            </g>
        </g>
        <g>
            <g opacity="0.449997">
                <g transform="matrix(1,0,0,1,59.2287,328.124)">
                    <path d="M0,0C0,2.215 -1.696,4.011 -3.788,4.011C-5.879,4.011 -7.575,2.215 -7.575,0C-7.575,-2.216 -5.879,-4.011 -3.788,-4.011C-1.696,-4.011 0,-2.216 0,0" style="fill:rgb(85,119,147);fill-rule:nonzero;"/>
                </g>
            </g>
        </g>
        <g>
            <g opacity="0.449997">
                <g transform="matrix(1,0,0,1,136.461,445.69)">
                    <path d="M0,0C0,2.216 -1.696,4.011 -3.788,4.011C-5.88,4.011 -7.576,2.216 -7.576,0C-7.576,-2.215 -5.88,-4.011 -3.788,-4.011C-1.696,-4.011 0,-2.215 0,0" style="fill:rgb(85,119,147);fill-rule:nonzero;"/>
                </g>
            </g>
        </g>
        <g>
            <g opacity="0.449997">
                <g transform="matrix(1,0,0,1,132.673,383.438)">
                    <path d="M0,0C0,2.216 -1.696,4.011 -3.788,4.011C-5.879,4.011 -7.575,2.216 -7.575,0C-7.575,-2.215 -5.879,-4.011 -3.788,-4.011C-1.696,-4.011 0,-2.215 0,0" style="fill:rgb(85,119,147);fill-rule:nonzero;"/>
                </g>
            </g>
        </g>
        <g>
            <g opacity="0.449997">
                <g transform="matrix(1,0,0,1,842.939,379.426)">
                    <path d="M0,0.001C0,2.216 -1.695,4.012 -3.787,4.012C-5.88,4.012 -7.575,2.216 -7.575,0.001C-7.575,-2.215 -5.88,-4.011 -3.787,-4.011C-1.695,-4.011 0,-2.215 0,0.001" style="fill:rgb(85,119,147);fill-rule:nonzero;"/>
                </g>
            </g>
        </g>
        <g>
            <g opacity="0.449997">
                <g transform="matrix(1,0,0,1,856.939,303.529)">
                    <path d="M0,-0.001C0,2.215 -1.695,4.011 -3.787,4.011C-5.88,4.011 -7.575,2.215 -7.575,-0.001C-7.575,-2.216 -5.88,-4.012 -3.787,-4.012C-1.695,-4.012 0,-2.216 0,-0.001" style="fill:rgb(85,119,147);fill-rule:nonzero;"/>
                </g>
            </g>
        </g>
        <g>
            <g opacity="0.449997">
                <g transform="matrix(1,0,0,1,132.673,521.307)">
                    <path d="M0,0C0,2.215 -1.696,4.011 -3.788,4.011C-5.879,4.011 -7.575,2.215 -7.575,0C-7.575,-2.216 -5.879,-4.011 -3.788,-4.011C-1.696,-4.011 0,-2.216 0,0" style="fill:rgb(85,119,147);fill-rule:nonzero;"/>
                </g>
            </g>
        </g>
        <g>
            <g opacity="0.449997">
                <g transform="matrix(1,0,0,1,71.6198,472.281)">
                    <path d="M0,0C0,2.215 -1.696,4.011 -3.788,4.011C-5.88,4.011 -7.576,2.215 -7.576,0C-7.576,-2.216 -5.88,-4.011 -3.788,-4.011C-1.696,-4.011 0,-2.216 0,0" style="fill:rgb(85,119,147);fill-rule:nonzero;"/>
                </g>
            </g>
        </g>
        <g>
            <g opacity="0.449997">
                <g transform="matrix(1,0,0,1,208.309,4.0114)">
                    <path d="M0,0C0,2.215 -1.696,4.011 -3.788,4.011C-5.879,4.011 -7.575,2.215 -7.575,0C-7.575,-2.215 -5.879,-4.011 -3.788,-4.011C-1.696,-4.011 0,-2.215 0,0" style="fill:rgb(85,119,147);fill-rule:nonzero;"/>
                </g>
            </g>
        </g>
        <g>
            <g opacity="0.449997">
                <g transform="matrix(1,0,0,1,226.247,92.5797)">
                    <path d="M0,0C0,2.215 -1.696,4.011 -3.788,4.011C-5.879,4.011 -7.575,2.215 -7.575,0C-7.575,-2.215 -5.879,-4.011 -3.788,-4.011C-1.696,-4.011 0,-2.215 0,0" style="fill:rgb(85,119,147);fill-rule:nonzero;"/>
                </g>
            </g>
        </g>
        <g>
            <g opacity="0.449997">
                <g transform="matrix(1,0,0,1,98.3527,98.506)">
                    <path d="M0,0C0,2.215 -1.696,4.011 -3.788,4.011C-5.879,4.011 -7.575,2.215 -7.575,0C-7.575,-2.215 -5.879,-4.011 -3.788,-4.011C-1.696,-4.011 0,-2.215 0,0" style="fill:rgb(85,119,147);fill-rule:nonzero;"/>
                </g>
            </g>
        </g>
        <g>
            <g opacity="0.449997">
                <g transform="matrix(1,0,0,1,456.041,407.645)">
                    <path d="M0,0C0,2.215 -1.696,4.011 -3.788,4.011C-5.88,4.011 -7.576,2.215 -7.576,0C-7.576,-2.215 -5.88,-4.011 -3.788,-4.011C-1.696,-4.011 0,-2.215 0,0" style="fill:rgb(85,119,147);fill-rule:nonzero;"/>
                </g>
            </g>
        </g>
        <g>
            <g opacity="0.449997">
                <g transform="matrix(1,0,0,1,550.113,379.426)">
                    <path d="M0,0.001C0,2.216 -1.696,4.012 -3.788,4.012C-5.88,4.012 -7.576,2.216 -7.576,0.001C-7.576,-2.215 -5.88,-4.011 -3.788,-4.011C-1.696,-4.011 0,-2.215 0,0.001" style="fill:rgb(85,119,147);fill-rule:nonzero;"/>
                </g>
            </g>
        </g>
        <g>
            <g opacity="0.449997">
                <g transform="matrix(1,0,0,1,180.539,578.534)">
                    <path d="M0,0C0,2.215 -1.696,4.011 -3.788,4.011C-5.879,4.011 -7.575,2.215 -7.575,0C-7.575,-2.215 -5.879,-4.011 -3.788,-4.011C-1.696,-4.011 0,-2.215 0,0" style="fill:rgb(85,119,147);fill-rule:nonzero;"/>
                </g>
            </g>
        </g>
        <g>
            <g opacity="0.449997">
                <g transform="matrix(1,0,0,1,7.5753,303.529)">
                    <path d="M0,-0.001C0,2.215 -1.696,4.011 -3.788,4.011C-5.879,4.011 -7.575,2.215 -7.575,-0.001C-7.575,-2.216 -5.879,-4.012 -3.788,-4.012C-1.696,-4.012 0,-2.216 0,-0.001" style="fill:rgb(85,119,147);fill-rule:nonzero;"/>
                </g>
            </g>
        </g>
        <g>
            <g opacity="0.449997">
                <g transform="matrix(1,0,0,1,663.345,508.659)">
                    <path d="M0,0.001C0,2.216 -1.696,4.012 -3.788,4.012C-5.88,4.012 -7.575,2.216 -7.575,0.001C-7.575,-2.215 -5.88,-4.011 -3.788,-4.011C-1.696,-4.011 0,-2.215 0,0.001" style="fill:rgb(85,119,147);fill-rule:nonzero;"/>
                </g>
            </g>
        </g>
        <g>
            <g opacity="0.449997">
                <g transform="matrix(1,0,0,1,381.22,36.5968)">
                    <path d="M0,0C0,2.215 -1.696,4.011 -3.788,4.011C-5.88,4.011 -7.576,2.215 -7.576,0C-7.576,-2.215 -5.88,-4.011 -3.788,-4.011C-1.696,-4.011 0,-2.215 0,0" style="fill:rgb(85,119,147);fill-rule:nonzero;"/>
                </g>
            </g>
        </g>
        <g>
            <g opacity="0.449997">
                <g transform="matrix(1,0,0,1,322.451,40.608)">
                    <path d="M0,0C0,2.215 -1.696,4.011 -3.788,4.011C-5.88,4.011 -7.576,2.215 -7.576,0C-7.576,-2.215 -5.88,-4.011 -3.788,-4.011C-1.696,-4.011 0,-2.215 0,0" style="fill:rgb(85,119,147);fill-rule:nonzero;"/>
                </g>
            </g>
        </g>
        <g>
            <g opacity="0.449997">
                <g transform="matrix(1,0,0,1,696.278,65.2321)">
                    <path d="M0,0C0,2.215 -1.695,4.011 -3.788,4.011C-5.88,4.011 -7.575,2.215 -7.575,0C-7.575,-2.215 -5.88,-4.011 -3.788,-4.011C-1.695,-4.011 0,-2.215 0,0" style="fill:rgb(85,119,147);fill-rule:nonzero;"/>
                </g>
            </g>
        </g>
        <g>
            <g opacity="0.449997">
                <g transform="matrix(1,0,0,1,788.613,102.517)">
                    <path d="M0,0C0,2.215 -1.695,4.011 -3.787,4.011C-5.879,4.011 -7.575,2.215 -7.575,0C-7.575,-2.215 -5.879,-4.011 -3.787,-4.011C-1.695,-4.011 0,-2.215 0,0" style="fill:rgb(85,119,147);fill-rule:nonzero;"/>
                </g>
            </g>
        </g>
        <g>
            <g opacity="0.449997">
                <g transform="matrix(1,0,0,1,756.676,12.0333)">
                    <path d="M0,0C0,2.215 -1.695,4.011 -3.788,4.011C-5.88,4.011 -7.575,2.215 -7.575,0C-7.575,-2.215 -5.88,-4.011 -3.788,-4.011C-1.695,-4.011 0,-2.215 0,0" style="fill:rgb(85,119,147);fill-rule:nonzero;"/>
                </g>
            </g>
        </g>
        <g>
            <g opacity="0.449997">
                <g transform="matrix(1,0,0,1,792.401,262)">
                    <path d="M0,0C0,2.215 -1.696,4.011 -3.788,4.011C-5.88,4.011 -7.575,2.215 -7.575,0C-7.575,-2.215 -5.88,-4.011 -3.788,-4.011C-1.696,-4.011 0,-2.215 0,0" style="fill:rgb(85,119,147);fill-rule:nonzero;"/>
                </g>
            </g>
        </g>
        <g>
            <g opacity="0.449997">
                <g transform="matrix(1,0,0,1,562.254,90.8741)">
                    <path d="M0,0C0,2.215 -1.695,4.011 -3.787,4.011C-5.88,4.011 -7.575,2.215 -7.575,0C-7.575,-2.215 -5.88,-4.011 -3.787,-4.011C-1.695,-4.011 0,-2.215 0,0" style="fill:rgb(85,119,147);fill-rule:nonzero;"/>
                </g>
            </g>
        </g>
        <g>
            <g opacity="0.449997">
                <g transform="matrix(1,0,0,1,692.927,558.814)">
                    <path d="M0,-0.001C0,2.215 -1.696,4.011 -3.788,4.011C-5.88,4.011 -7.575,2.215 -7.575,-0.001C-7.575,-2.216 -5.88,-4.012 -3.788,-4.012C-1.696,-4.012 0,-2.216 0,-0.001" style="fill:rgb(85,119,147);fill-rule:nonzero;"/>
                </g>
            </g>
        </g>
        <g>
            <g opacity="0.800003">
                <g transform="matrix(1,0,0,1,13.0089,386.789)">
                    <path d="M0,0C0,3.317 -2.539,6.006 -5.671,6.006C-8.804,6.006 -11.343,3.317 -11.343,0C-11.343,-3.316 -8.804,-6.006 -5.671,-6.006C-2.539,-6.006 0,-3.316 0,0" style="fill:rgb(85,119,147);fill-rule:nonzero;"/>
                </g>
            </g>
        </g>
        <g>
            <g opacity="0.800003">
                <g transform="matrix(1,0,0,1,655.028,102.517)">
                    <path d="M0,0C0,3.317 -2.539,6.006 -5.671,6.006C-8.804,6.006 -11.343,3.317 -11.343,0C-11.343,-3.317 -8.804,-6.006 -5.671,-6.006C-2.539,-6.006 0,-3.317 0,0" style="fill:rgb(85,119,147);fill-rule:nonzero;"/>
                </g>
            </g>
        </g>
        <g>
            <g opacity="0.800003">
                <g transform="matrix(1,0,0,1,324.335,126.092)">
                    <path d="M0,0C0,3.317 -2.54,6.006 -5.671,6.006C-8.804,6.006 -11.343,3.317 -11.343,0C-11.343,-3.317 -8.804,-6.006 -5.671,-6.006C-2.54,-6.006 0,-3.317 0,0" style="fill:rgb(85,119,147);fill-rule:nonzero;"/>
                </g>
            </g>
        </g>
        <g>
            <g opacity="0.800003">
                <g transform="matrix(1,0,0,1,776.11,351.926)">
                    <path d="M0,0C0,3.317 -2.539,6.006 -5.672,6.006C-8.804,6.006 -11.343,3.317 -11.343,0C-11.343,-3.317 -8.804,-6.006 -5.672,-6.006C-2.539,-6.006 0,-3.317 0,0" style="fill:rgb(85,119,147);fill-rule:nonzero;"/>
                </g>
            </g>
        </g>
        <g>
            <g opacity="0.800003">
                <g transform="matrix(1,0,0,1,642.86,42.6027)">
                    <path d="M0,0C0,3.317 -2.539,6.006 -5.671,6.006C-8.804,6.006 -11.343,3.317 -11.343,0C-11.343,-3.317 -8.804,-6.006 -5.671,-6.006C-2.539,-6.006 0,-3.317 0,0" style="fill:rgb(85,119,147);fill-rule:nonzero;"/>
                </g>
            </g>
        </g>
        <g>
            <g opacity="0.800003">
                <g transform="matrix(1,0,0,1,480.64,50.5123)">
                    <path d="M0,0C0,3.317 -2.54,6.006 -5.672,6.006C-8.804,6.006 -11.344,3.317 -11.344,0C-11.344,-3.317 -8.804,-6.006 -5.672,-6.006C-2.54,-6.006 0,-3.317 0,0" style="fill:rgb(85,119,147);fill-rule:nonzero;"/>
                </g>
            </g>
        </g>
        <g>
            <g opacity="0.800003">
                <g transform="matrix(1,0,0,1,142.132,88.569)">
                    <path d="M0,0C0,3.317 -2.54,6.006 -5.671,6.006C-8.804,6.006 -11.343,3.317 -11.343,0C-11.343,-3.317 -8.804,-6.006 -5.671,-6.006C-2.54,-6.006 0,-3.317 0,0" style="fill:rgb(85,119,147);fill-rule:nonzero;"/>
                </g>
            </g>
        </g>
        <g transform="matrix(1,0,0,1,744.491,143.516)">
            <path d="M0,54.753C-0.484,41.065 -5.229,27.05 -20.277,27.29C-8.031,27.05 -0.413,15.909 -0.001,0C-0.341,13.753 6.271,27.376 20.276,27.29C5.912,27.376 -0.557,40.778 0,54.753" style="fill:white;fill-rule:nonzero;"/>
        </g>
        <g transform="matrix(1,0,0,1,732.505,171.195)">
            <path d="M0,-0.582C5.567,1.798 9.596,6.893 11.804,14.331C13.054,10.249 15.02,6.706 17.61,3.995C19.419,2.102 21.519,0.631 23.852,-0.393C21.714,-1.359 19.765,-2.724 18.056,-4.465C15.244,-7.329 13.123,-11.128 11.806,-15.52C9.563,-8.415 5.455,-3.208 0,-0.582M10.262,27.143C10.258,27.066 10.256,26.989 10.252,26.913C9.876,17.222 6.979,1.333 -7.926,1.333C-8.039,1.333 -8.151,1.334 -8.265,1.335L-8.326,-2.114C2.567,-2.327 9.863,-12.38 10.261,-27.725L13.709,-27.638L13.709,-27.635C13.501,-19.194 16.046,-11.437 20.518,-6.881C23.624,-3.717 27.53,-2.114 32.129,-2.114C32.17,-2.114 32.247,-2.121 32.252,-2.114L32.272,1.336L32.271,1.336C27.366,1.365 23.272,3.062 20.104,6.378C15.741,10.946 13.412,18.37 13.699,26.776C13.703,26.855 13.705,26.934 13.709,27.013L10.262,27.143Z" style="fill:rgb(85,119,147);fill-rule:nonzero;"/>
        </g>
        <g transform="matrix(1,0,0,1,195.018,456.109)">
            <path d="M0,54.754C-0.484,41.066 -5.228,27.051 -20.277,27.291C-8.031,27.051 -0.412,15.91 0,0C-0.34,13.754 6.272,27.377 20.277,27.291C5.913,27.377 -0.556,40.779 0,54.754" style="fill:white;fill-rule:nonzero;"/>
        </g>
        <g transform="matrix(1,0,0,1,183.033,483.79)">
            <path d="M0,-0.582C5.567,1.798 9.596,6.893 11.804,14.33C13.054,10.248 15.02,6.706 17.61,3.994C19.419,2.102 21.519,0.631 23.852,-0.394C21.714,-1.36 19.765,-2.725 18.056,-4.466C15.245,-7.329 13.123,-11.129 11.806,-15.52C9.563,-8.415 5.456,-3.208 0,-0.582M10.262,27.143C10.258,27.065 10.256,26.988 10.252,26.912C9.876,17.222 6.979,1.332 -7.926,1.332C-8.039,1.332 -8.151,1.333 -8.265,1.335L-8.326,-2.114C2.567,-2.328 9.863,-12.381 10.261,-27.725L13.709,-27.638L13.709,-27.635C13.501,-19.195 16.046,-11.437 20.518,-6.882C23.625,-3.718 27.53,-2.114 32.129,-2.114C32.17,-2.114 32.248,-2.121 32.252,-2.114L32.273,1.336L32.272,1.336C27.367,1.365 23.272,3.062 20.104,6.377C15.742,10.945 13.413,18.37 13.7,26.775C13.703,26.855 13.706,26.934 13.709,27.013L10.262,27.143Z" style="fill:rgb(85,119,147);fill-rule:nonzero;"/>
        </g>
        <g transform="matrix(1,0,0,1,88.1432,184.621)">
            <path d="M0,54.753C-0.484,41.065 -5.228,27.05 -20.277,27.29C-8.031,27.05 -0.413,15.909 0,0C-0.341,13.753 6.272,27.377 20.276,27.29C5.913,27.377 -0.556,40.778 0,54.753" style="fill:white;fill-rule:nonzero;"/>
        </g>
        <g transform="matrix(1,0,0,1,76.1579,212.3)">
            <path d="M0,-0.582C5.567,1.798 9.596,6.893 11.804,14.331C13.054,10.249 15.02,6.707 17.61,3.995C19.419,2.102 21.519,0.631 23.852,-0.393C21.714,-1.359 19.765,-2.724 18.056,-4.465C15.245,-7.329 13.123,-11.128 11.806,-15.52C9.563,-8.415 5.456,-3.208 0,-0.582M10.262,27.143C10.258,27.066 10.256,26.989 10.252,26.913C9.876,17.222 6.979,1.333 -7.926,1.333C-8.039,1.333 -8.151,1.334 -8.265,1.335L-8.326,-2.114C2.567,-2.327 9.863,-12.38 10.261,-27.725L13.709,-27.637L13.709,-27.634C13.501,-19.194 16.046,-11.437 20.518,-6.881C23.625,-3.717 27.53,-2.114 32.129,-2.114C32.17,-2.114 32.248,-2.121 32.252,-2.114L32.273,1.336L32.272,1.336C27.367,1.365 23.272,3.062 20.104,6.378C15.741,10.946 13.413,18.37 13.7,26.776C13.703,26.855 13.706,26.934 13.709,27.013L10.262,27.143Z" style="fill:rgb(85,119,147);fill-rule:nonzero;"/>
        </g>
        <g transform="matrix(1,0,0,1,710.893,441.488)">
            <path d="M0,54.754C-0.484,41.066 -5.229,27.051 -20.277,27.29C-8.031,27.051 -0.412,15.91 -0.001,0C-0.341,13.754 6.271,27.377 20.276,27.29C5.912,27.377 -0.557,40.778 0,54.754" style="fill:white;fill-rule:nonzero;"/>
        </g>
        <g transform="matrix(1,0,0,1,698.908,469.168)">
            <path d="M0,-0.582C5.567,1.798 9.597,6.893 11.804,14.331C13.054,10.249 15.02,6.706 17.61,3.995C19.419,2.102 21.519,0.631 23.852,-0.393C21.714,-1.359 19.765,-2.724 18.056,-4.465C15.244,-7.329 13.123,-11.128 11.806,-15.52C9.563,-8.415 5.455,-3.208 0,-0.582M10.262,27.143C10.258,27.066 10.256,26.989 10.252,26.913C9.876,17.222 6.979,1.333 -7.926,1.333C-8.039,1.333 -8.15,1.334 -8.265,1.335L-8.326,-2.113C2.567,-2.327 9.863,-12.38 10.261,-27.725L13.709,-27.638L13.709,-27.635C13.501,-19.194 16.047,-11.437 20.518,-6.882C23.624,-3.718 27.53,-2.113 32.129,-2.113C32.17,-2.113 32.248,-2.12 32.252,-2.114L32.273,1.336L32.272,1.336C27.367,1.365 23.272,3.062 20.104,6.378C15.741,10.946 13.412,18.37 13.7,26.776C13.703,26.855 13.706,26.935 13.709,27.013L10.262,27.143Z" style="fill:rgb(85,119,147);fill-rule:nonzero;"/>
        </g>
        <g transform="matrix(1,0,0,1,784.826,436.83)">
            <path d="M0,-0.001C0,2.548 -2.065,4.613 -4.614,4.613C-7.162,4.613 -9.228,2.548 -9.228,-0.001C-9.228,-2.549 -7.162,-4.614 -4.614,-4.614C-2.065,-4.614 0,-2.549 0,-0.001" style="fill:rgb(85,119,147);fill-rule:nonzero;"/>
        </g>
    </g>
</svg>
